<mxfile host="app.diagrams.net" modified="2021-02-07T03:30:38.881Z" agent="5.0 (Macintosh; Intel Mac OS X 10_11_6) AppleWebKit/537.36 (KHTML, like Gecko) Chrome/88.0.4324.96 Safari/537.36" etag="c50oi0U_jH2r9QmiKiN4" version="14.2.9" type="github">
  <diagram id="zAayXOPo3Ohrwkr1tWpw" name="Page-1">
    <mxGraphModel dx="925" dy="1329" grid="1" gridSize="10" guides="1" tooltips="1" connect="1" arrows="1" fold="1" page="1" pageScale="3" pageWidth="827" pageHeight="1169" math="0" shadow="0">
      <root>
        <mxCell id="0" />
        <mxCell id="1" parent="0" />
        <mxCell id="3qTs6TiB7zuJ6V9QkXZx-14" value="" style="group" parent="1" vertex="1" connectable="0">
          <mxGeometry x="400" y="230" width="620" height="220" as="geometry" />
        </mxCell>
        <mxCell id="3qTs6TiB7zuJ6V9QkXZx-1" value="" style="rounded=0;whiteSpace=wrap;html=1;fillColor=#3333FF;strokeColor=none;shadow=1;" parent="3qTs6TiB7zuJ6V9QkXZx-14" vertex="1">
          <mxGeometry width="620" height="220" as="geometry" />
        </mxCell>
        <mxCell id="3qTs6TiB7zuJ6V9QkXZx-3" value="&lt;font color=&quot;#ffffff&quot; style=&quot;font-size: 22px&quot;&gt;应用层&lt;/font&gt;" style="text;html=1;strokeColor=none;fillColor=none;align=center;verticalAlign=middle;whiteSpace=wrap;rounded=0;" parent="3qTs6TiB7zuJ6V9QkXZx-14" vertex="1">
          <mxGeometry x="14.229508196721312" y="43" width="30.491803278688526" height="130" as="geometry" />
        </mxCell>
        <mxCell id="3qTs6TiB7zuJ6V9QkXZx-13" value="" style="group" parent="3qTs6TiB7zuJ6V9QkXZx-14" vertex="1" connectable="0">
          <mxGeometry x="62" y="20" width="538.688524590164" height="180" as="geometry" />
        </mxCell>
        <mxCell id="3qTs6TiB7zuJ6V9QkXZx-2" value="" style="rounded=0;whiteSpace=wrap;html=1;fillColor=#007FFF;strokeColor=none;shadow=1;" parent="3qTs6TiB7zuJ6V9QkXZx-13" vertex="1">
          <mxGeometry width="538.688524590164" height="180" as="geometry" />
        </mxCell>
        <mxCell id="3qTs6TiB7zuJ6V9QkXZx-4" value="&lt;font color=&quot;#ffffff&quot;&gt;&lt;span style=&quot;font-size: 21px&quot;&gt;智慧企业服务平台&lt;/span&gt;&lt;/font&gt;" style="text;html=1;strokeColor=none;fillColor=none;align=center;verticalAlign=middle;whiteSpace=wrap;rounded=0;" parent="3qTs6TiB7zuJ6V9QkXZx-13" vertex="1">
          <mxGeometry x="101.63934426229508" y="10" width="304.91803278688525" height="20" as="geometry" />
        </mxCell>
        <mxCell id="3qTs6TiB7zuJ6V9QkXZx-5" value="&lt;font style=&quot;font-size: 20px&quot; color=&quot;#ffffff&quot;&gt;资源门户&lt;/font&gt;" style="rounded=0;whiteSpace=wrap;html=1;fillColor=#9933FF;strokeColor=none;shadow=1;" parent="3qTs6TiB7zuJ6V9QkXZx-13" vertex="1">
          <mxGeometry x="30.491803278688526" y="50" width="60.98360655737705" height="90" as="geometry" />
        </mxCell>
        <mxCell id="3qTs6TiB7zuJ6V9QkXZx-6" value="&lt;font style=&quot;font-size: 20px&quot; color=&quot;#ffffff&quot;&gt;新闻资讯&lt;/font&gt;" style="rounded=0;whiteSpace=wrap;html=1;fillColor=#9933FF;strokeColor=none;shadow=1;" parent="3qTs6TiB7zuJ6V9QkXZx-13" vertex="1">
          <mxGeometry x="101.63934426229508" y="50" width="60.98360655737705" height="90" as="geometry" />
        </mxCell>
        <mxCell id="3qTs6TiB7zuJ6V9QkXZx-7" value="&lt;font style=&quot;font-size: 20px&quot; color=&quot;#ffffff&quot;&gt;政策资金&lt;/font&gt;" style="rounded=0;whiteSpace=wrap;html=1;fillColor=#9933FF;strokeColor=none;shadow=1;" parent="3qTs6TiB7zuJ6V9QkXZx-13" vertex="1">
          <mxGeometry x="172.78688524590163" y="50" width="60.98360655737705" height="90" as="geometry" />
        </mxCell>
        <mxCell id="3qTs6TiB7zuJ6V9QkXZx-8" value="&lt;font style=&quot;font-size: 20px&quot; color=&quot;#ffffff&quot;&gt;培训活动&lt;/font&gt;" style="rounded=0;whiteSpace=wrap;html=1;fillColor=#9933FF;strokeColor=none;shadow=1;" parent="3qTs6TiB7zuJ6V9QkXZx-13" vertex="1">
          <mxGeometry x="243.9344262295082" y="50" width="60.98360655737705" height="90" as="geometry" />
        </mxCell>
        <mxCell id="3qTs6TiB7zuJ6V9QkXZx-9" value="&lt;font style=&quot;font-size: 20px&quot; color=&quot;#ffffff&quot;&gt;服务商城&lt;/font&gt;" style="rounded=0;whiteSpace=wrap;html=1;fillColor=#9933FF;strokeColor=none;shadow=1;" parent="3qTs6TiB7zuJ6V9QkXZx-13" vertex="1">
          <mxGeometry x="315.08196721311475" y="50" width="60.98360655737705" height="90" as="geometry" />
        </mxCell>
        <mxCell id="3qTs6TiB7zuJ6V9QkXZx-10" value="&lt;font style=&quot;font-size: 20px&quot; color=&quot;#ffffff&quot;&gt;服务补贴券&lt;/font&gt;" style="rounded=0;whiteSpace=wrap;html=1;fillColor=#9933FF;strokeColor=none;shadow=1;" parent="3qTs6TiB7zuJ6V9QkXZx-13" vertex="1">
          <mxGeometry x="386.2295081967213" y="50" width="60.98360655737705" height="90" as="geometry" />
        </mxCell>
        <mxCell id="3qTs6TiB7zuJ6V9QkXZx-11" value="&lt;font style=&quot;font-size: 20px&quot; color=&quot;#ffffff&quot;&gt;产销融通&lt;/font&gt;" style="rounded=0;whiteSpace=wrap;html=1;fillColor=#9933FF;strokeColor=none;shadow=1;" parent="3qTs6TiB7zuJ6V9QkXZx-13" vertex="1">
          <mxGeometry x="457.3770491803279" y="50" width="60.98360655737705" height="90" as="geometry" />
        </mxCell>
        <mxCell id="3qTs6TiB7zuJ6V9QkXZx-15" value="" style="group" parent="1" vertex="1" connectable="0">
          <mxGeometry x="400" y="464" width="620" height="220" as="geometry" />
        </mxCell>
        <mxCell id="3qTs6TiB7zuJ6V9QkXZx-16" value="" style="rounded=0;whiteSpace=wrap;html=1;fillColor=#3333FF;strokeColor=none;shadow=1;" parent="3qTs6TiB7zuJ6V9QkXZx-15" vertex="1">
          <mxGeometry width="620" height="220" as="geometry" />
        </mxCell>
        <mxCell id="3qTs6TiB7zuJ6V9QkXZx-17" value="&lt;font color=&quot;#ffffff&quot; style=&quot;font-size: 22px&quot;&gt;服务支撑层&lt;/font&gt;" style="text;html=1;strokeColor=none;fillColor=none;align=center;verticalAlign=middle;whiteSpace=wrap;rounded=0;" parent="3qTs6TiB7zuJ6V9QkXZx-15" vertex="1">
          <mxGeometry x="14.229508196721312" y="43" width="30.491803278688526" height="130" as="geometry" />
        </mxCell>
        <mxCell id="3qTs6TiB7zuJ6V9QkXZx-18" value="" style="group" parent="3qTs6TiB7zuJ6V9QkXZx-15" vertex="1" connectable="0">
          <mxGeometry x="62" y="20" width="538.688524590164" height="180" as="geometry" />
        </mxCell>
        <mxCell id="3qTs6TiB7zuJ6V9QkXZx-19" value="" style="rounded=0;whiteSpace=wrap;html=1;fillColor=#007FFF;strokeColor=none;shadow=1;" parent="3qTs6TiB7zuJ6V9QkXZx-18" vertex="1">
          <mxGeometry width="538.688524590164" height="180" as="geometry" />
        </mxCell>
        <mxCell id="3qTs6TiB7zuJ6V9QkXZx-20" value="&lt;font color=&quot;#ffffff&quot;&gt;&lt;span style=&quot;font-size: 21px&quot;&gt;应用支撑平台&lt;/span&gt;&lt;/font&gt;" style="text;html=1;strokeColor=none;fillColor=none;align=center;verticalAlign=middle;whiteSpace=wrap;rounded=0;" parent="3qTs6TiB7zuJ6V9QkXZx-18" vertex="1">
          <mxGeometry x="101.63934426229508" y="10" width="304.91803278688525" height="20" as="geometry" />
        </mxCell>
        <mxCell id="3qTs6TiB7zuJ6V9QkXZx-21" value="&lt;font style=&quot;font-size: 20px&quot; color=&quot;#ffffff&quot;&gt;会员中心&lt;/font&gt;" style="rounded=0;whiteSpace=wrap;html=1;fillColor=#9933FF;strokeColor=none;shadow=1;" parent="3qTs6TiB7zuJ6V9QkXZx-18" vertex="1">
          <mxGeometry x="30.491803278688526" y="50" width="60.98360655737705" height="90" as="geometry" />
        </mxCell>
        <mxCell id="3qTs6TiB7zuJ6V9QkXZx-22" value="&lt;font style=&quot;font-size: 20px&quot; color=&quot;#ffffff&quot;&gt;运营管理&lt;/font&gt;" style="rounded=0;whiteSpace=wrap;html=1;fillColor=#9933FF;strokeColor=none;shadow=1;" parent="3qTs6TiB7zuJ6V9QkXZx-18" vertex="1">
          <mxGeometry x="101.63934426229508" y="50" width="60.98360655737705" height="90" as="geometry" />
        </mxCell>
        <mxCell id="3qTs6TiB7zuJ6V9QkXZx-23" value="&lt;font style=&quot;font-size: 20px&quot; color=&quot;#ffffff&quot;&gt;单点登陆&lt;/font&gt;" style="rounded=0;whiteSpace=wrap;html=1;fillColor=#9933FF;strokeColor=none;shadow=1;" parent="3qTs6TiB7zuJ6V9QkXZx-18" vertex="1">
          <mxGeometry x="172.78688524590163" y="50" width="60.98360655737705" height="90" as="geometry" />
        </mxCell>
        <mxCell id="3qTs6TiB7zuJ6V9QkXZx-24" value="&lt;font style=&quot;font-size: 20px&quot; color=&quot;#ffffff&quot;&gt;数据接口&lt;/font&gt;" style="rounded=0;whiteSpace=wrap;html=1;fillColor=#9933FF;strokeColor=none;shadow=1;" parent="3qTs6TiB7zuJ6V9QkXZx-18" vertex="1">
          <mxGeometry x="243.9344262295082" y="50" width="60.98360655737705" height="90" as="geometry" />
        </mxCell>
        <mxCell id="3qTs6TiB7zuJ6V9QkXZx-25" value="&lt;font style=&quot;font-size: 20px&quot; color=&quot;#ffffff&quot;&gt;日志审核&lt;/font&gt;" style="rounded=0;whiteSpace=wrap;html=1;fillColor=#9933FF;strokeColor=none;shadow=1;" parent="3qTs6TiB7zuJ6V9QkXZx-18" vertex="1">
          <mxGeometry x="315.08196721311475" y="50" width="60.98360655737705" height="90" as="geometry" />
        </mxCell>
        <mxCell id="3qTs6TiB7zuJ6V9QkXZx-26" value="&lt;font style=&quot;font-size: 20px&quot; color=&quot;#ffffff&quot;&gt;服务资源统一调度系统&lt;/font&gt;" style="rounded=0;whiteSpace=wrap;html=1;fillColor=#9933FF;strokeColor=none;shadow=1;" parent="3qTs6TiB7zuJ6V9QkXZx-18" vertex="1">
          <mxGeometry x="386.2295081967213" y="50" width="121.9672131147541" height="90" as="geometry" />
        </mxCell>
        <mxCell id="ofSC6AayV_rCN6vgUUX2-1" value="" style="group;strokeColor=#000000;fontColor=#E6E6E6;" vertex="1" connectable="0" parent="1">
          <mxGeometry x="400" y="700" width="620" height="220" as="geometry" />
        </mxCell>
        <mxCell id="ofSC6AayV_rCN6vgUUX2-2" value="" style="rounded=0;whiteSpace=wrap;html=1;fillColor=#3333FF;strokeColor=none;shadow=1;" vertex="1" parent="ofSC6AayV_rCN6vgUUX2-1">
          <mxGeometry width="620" height="220" as="geometry" />
        </mxCell>
        <mxCell id="ofSC6AayV_rCN6vgUUX2-3" value="&lt;font color=&quot;#ffffff&quot; style=&quot;font-size: 22px&quot;&gt;数据支撑层&lt;/font&gt;" style="text;html=1;strokeColor=none;fillColor=none;align=center;verticalAlign=middle;whiteSpace=wrap;rounded=0;" vertex="1" parent="ofSC6AayV_rCN6vgUUX2-1">
          <mxGeometry x="14.229508196721312" y="43" width="30.491803278688526" height="130" as="geometry" />
        </mxCell>
        <mxCell id="ofSC6AayV_rCN6vgUUX2-4" value="" style="group" vertex="1" connectable="0" parent="ofSC6AayV_rCN6vgUUX2-1">
          <mxGeometry x="62" y="20" width="538.688524590164" height="180" as="geometry" />
        </mxCell>
        <mxCell id="ofSC6AayV_rCN6vgUUX2-5" value="" style="rounded=0;whiteSpace=wrap;html=1;fillColor=#007FFF;strokeColor=none;shadow=1;" vertex="1" parent="ofSC6AayV_rCN6vgUUX2-4">
          <mxGeometry width="538.688524590164" height="180" as="geometry" />
        </mxCell>
        <mxCell id="ofSC6AayV_rCN6vgUUX2-6" value="&lt;font color=&quot;#ffffff&quot;&gt;&lt;span style=&quot;font-size: 21px&quot;&gt;数据调度与治理&lt;/span&gt;&lt;/font&gt;" style="text;html=1;strokeColor=none;fillColor=none;align=center;verticalAlign=middle;whiteSpace=wrap;rounded=0;" vertex="1" parent="ofSC6AayV_rCN6vgUUX2-4">
          <mxGeometry x="101.63934426229508" y="10" width="304.91803278688525" height="20" as="geometry" />
        </mxCell>
        <mxCell id="ofSC6AayV_rCN6vgUUX2-14" value="&lt;font style=&quot;font-size: 16px&quot; color=&quot;#ffffff&quot;&gt;平台数据库&lt;/font&gt;" style="shape=datastore;whiteSpace=wrap;html=1;shadow=1;fillColor=#9933FF;strokeColor=#FFFFFF;" vertex="1" parent="1">
          <mxGeometry x="490" y="790" width="100" height="80" as="geometry" />
        </mxCell>
        <mxCell id="ofSC6AayV_rCN6vgUUX2-16" value="&lt;font style=&quot;font-size: 16px&quot; color=&quot;#ffffff&quot;&gt;市级企业服务平台数据&lt;/font&gt;" style="shape=datastore;whiteSpace=wrap;html=1;shadow=1;fillColor=#9933FF;strokeColor=#FFFFFF;" vertex="1" parent="1">
          <mxGeometry x="610" y="790" width="100" height="80" as="geometry" />
        </mxCell>
        <mxCell id="ofSC6AayV_rCN6vgUUX2-17" value="&lt;font style=&quot;font-size: 16px&quot; color=&quot;#ffffff&quot;&gt;市级招商管理平台数据&lt;/font&gt;" style="shape=datastore;whiteSpace=wrap;html=1;shadow=1;fillColor=#9933FF;strokeColor=#FFFFFF;" vertex="1" parent="1">
          <mxGeometry x="740" y="790" width="100" height="80" as="geometry" />
        </mxCell>
        <mxCell id="ofSC6AayV_rCN6vgUUX2-18" value="&lt;font style=&quot;font-size: 16px&quot; color=&quot;#ffffff&quot;&gt;市级法人库&lt;/font&gt;" style="shape=datastore;whiteSpace=wrap;html=1;shadow=1;fillColor=#9933FF;strokeColor=#FFFFFF;" vertex="1" parent="1">
          <mxGeometry x="860" y="790" width="100" height="80" as="geometry" />
        </mxCell>
        <mxCell id="ofSC6AayV_rCN6vgUUX2-28" value="" style="group" vertex="1" connectable="0" parent="1">
          <mxGeometry x="305" y="930" width="815" height="80" as="geometry" />
        </mxCell>
        <mxCell id="ofSC6AayV_rCN6vgUUX2-22" value="" style="rounded=0;whiteSpace=wrap;html=1;fillColor=#3333FF;strokeColor=none;shadow=1;" vertex="1" parent="ofSC6AayV_rCN6vgUUX2-28">
          <mxGeometry width="814.9999999999999" height="80" as="geometry" />
        </mxCell>
        <mxCell id="ofSC6AayV_rCN6vgUUX2-23" value="&lt;font color=&quot;#ffffff&quot; style=&quot;font-size: 21px&quot;&gt;基础设施层&lt;/font&gt;" style="text;html=1;strokeColor=none;fillColor=none;align=center;verticalAlign=middle;whiteSpace=wrap;rounded=0;" vertex="1" parent="ofSC6AayV_rCN6vgUUX2-28">
          <mxGeometry x="19.124444049101577" y="15.633333333333335" width="69.6976516634051" height="47.27333333333334" as="geometry" />
        </mxCell>
        <mxCell id="ofSC6AayV_rCN6vgUUX2-25" value="&lt;font color=&quot;#ffffff&quot; style=&quot;font-size: 18px&quot;&gt;服务器基础硬件设备&lt;/font&gt;" style="rounded=0;whiteSpace=wrap;html=1;fillColor=#007FFF;strokeColor=none;shadow=1;" vertex="1" parent="ofSC6AayV_rCN6vgUUX2-28">
          <mxGeometry x="148.18181818181813" y="13.336666666666648" width="264.46539761608256" height="53.33333333333334" as="geometry" />
        </mxCell>
        <mxCell id="ofSC6AayV_rCN6vgUUX2-77" value="&lt;font color=&quot;#ffffff&quot;&gt;&lt;span style=&quot;font-size: 18px&quot;&gt;政务云基础网络设施&lt;/span&gt;&lt;/font&gt;" style="rounded=0;whiteSpace=wrap;html=1;fillColor=#007FFF;strokeColor=none;shadow=1;" vertex="1" parent="ofSC6AayV_rCN6vgUUX2-28">
          <mxGeometry x="475.0018181818181" y="15.636666666666649" width="264.46539761608256" height="53.33333333333334" as="geometry" />
        </mxCell>
        <mxCell id="ofSC6AayV_rCN6vgUUX2-66" value="" style="group" vertex="1" connectable="0" parent="1">
          <mxGeometry x="300" y="140" width="815" height="80" as="geometry" />
        </mxCell>
        <mxCell id="ofSC6AayV_rCN6vgUUX2-64" value="" style="group" vertex="1" connectable="0" parent="ofSC6AayV_rCN6vgUUX2-66">
          <mxGeometry x="4" width="815" height="80" as="geometry" />
        </mxCell>
        <mxCell id="ofSC6AayV_rCN6vgUUX2-30" value="" style="rounded=0;whiteSpace=wrap;html=1;fillColor=#3333FF;strokeColor=none;shadow=1;container=0;" vertex="1" parent="ofSC6AayV_rCN6vgUUX2-64">
          <mxGeometry width="810" height="80" as="geometry" />
        </mxCell>
        <mxCell id="ofSC6AayV_rCN6vgUUX2-31" value="&lt;font color=&quot;#ffffff&quot; style=&quot;font-size: 21px&quot;&gt;用户层&lt;/font&gt;" style="text;html=1;strokeColor=none;fillColor=none;align=center;verticalAlign=middle;whiteSpace=wrap;rounded=0;container=0;" vertex="1" parent="ofSC6AayV_rCN6vgUUX2-64">
          <mxGeometry x="18.427739726027415" y="15.633333333333326" width="67.14897260273973" height="47.27333333333334" as="geometry" />
        </mxCell>
        <mxCell id="ofSC6AayV_rCN6vgUUX2-65" value="" style="group" vertex="1" connectable="0" parent="ofSC6AayV_rCN6vgUUX2-66">
          <mxGeometry x="118.00263157894739" y="10.000000000000014" width="677.24" height="54.06999999999999" as="geometry" />
        </mxCell>
        <mxCell id="ofSC6AayV_rCN6vgUUX2-43" value="&lt;font color=&quot;#ffffff&quot; style=&quot;font-size: 17px&quot;&gt;企业用户&lt;/font&gt;" style="rounded=0;whiteSpace=wrap;html=1;fillColor=#007FFF;strokeColor=none;shadow=1;container=0;" vertex="1" parent="ofSC6AayV_rCN6vgUUX2-65">
          <mxGeometry x="139.99999999999994" y="0.7400000000000091" width="117.24" height="53.33" as="geometry" />
        </mxCell>
        <mxCell id="ofSC6AayV_rCN6vgUUX2-44" value="&lt;font color=&quot;#ffffff&quot; style=&quot;font-size: 17px&quot;&gt;服务机构&lt;/font&gt;" style="rounded=0;whiteSpace=wrap;html=1;fillColor=#007FFF;strokeColor=none;shadow=1;container=0;" vertex="1" parent="ofSC6AayV_rCN6vgUUX2-65">
          <mxGeometry x="279.99999999999994" y="0.7400000000000091" width="117.24" height="53.33" as="geometry" />
        </mxCell>
        <mxCell id="ofSC6AayV_rCN6vgUUX2-45" value="&lt;font color=&quot;#ffffff&quot;&gt;&lt;span style=&quot;font-size: 17px&quot;&gt;管理部门&lt;/span&gt;&lt;/font&gt;" style="rounded=0;whiteSpace=wrap;html=1;fillColor=#007FFF;strokeColor=none;shadow=1;container=0;" vertex="1" parent="ofSC6AayV_rCN6vgUUX2-65">
          <mxGeometry x="422.99999999999994" width="117.24" height="53.33" as="geometry" />
        </mxCell>
        <mxCell id="ofSC6AayV_rCN6vgUUX2-46" value="&lt;font color=&quot;#ffffff&quot; style=&quot;font-size: 17px&quot;&gt;招商中心&lt;/font&gt;" style="rounded=0;whiteSpace=wrap;html=1;fillColor=#007FFF;strokeColor=none;shadow=1;container=0;" vertex="1" parent="ofSC6AayV_rCN6vgUUX2-65">
          <mxGeometry x="560" y="0.7400000000000091" width="117.24" height="53.33" as="geometry" />
        </mxCell>
        <mxCell id="ofSC6AayV_rCN6vgUUX2-32" value="&lt;font color=&quot;#ffffff&quot; style=&quot;font-size: 17px&quot;&gt;个人用户&lt;/font&gt;" style="rounded=0;whiteSpace=wrap;html=1;fillColor=#007FFF;strokeColor=none;shadow=1;container=0;" vertex="1" parent="ofSC6AayV_rCN6vgUUX2-65">
          <mxGeometry width="117.24" height="53.33" as="geometry" />
        </mxCell>
        <mxCell id="ofSC6AayV_rCN6vgUUX2-69" value="" style="group;shadow=1;" vertex="1" connectable="0" parent="1">
          <mxGeometry x="305" y="230" width="80" height="690" as="geometry" />
        </mxCell>
        <mxCell id="ofSC6AayV_rCN6vgUUX2-61" value="" style="rounded=0;whiteSpace=wrap;html=1;shadow=1;fontColor=#E6E6E6;fillColor=#3333FF;strokeColor=none;" vertex="1" parent="ofSC6AayV_rCN6vgUUX2-69">
          <mxGeometry width="80" height="690" as="geometry" />
        </mxCell>
        <mxCell id="ofSC6AayV_rCN6vgUUX2-62" value="运&lt;br&gt;&lt;br&gt;维&lt;br&gt;&lt;br&gt;与&lt;br&gt;&lt;br&gt;服&lt;br&gt;&lt;br&gt;务&lt;br&gt;&lt;br&gt;体&lt;br&gt;&lt;br&gt;系" style="text;html=1;strokeColor=none;fillColor=none;align=center;verticalAlign=middle;whiteSpace=wrap;rounded=0;shadow=1;fontColor=#E6E6E6;fontSize=22;spacingTop=0;spacing=2;spacingLeft=0;" vertex="1" parent="ofSC6AayV_rCN6vgUUX2-69">
          <mxGeometry x="20" y="302" width="40" height="20" as="geometry" />
        </mxCell>
        <mxCell id="ofSC6AayV_rCN6vgUUX2-70" value="" style="group;shadow=1;" vertex="1" connectable="0" parent="1">
          <mxGeometry x="1034" y="230" width="80" height="690" as="geometry" />
        </mxCell>
        <mxCell id="ofSC6AayV_rCN6vgUUX2-71" value="" style="rounded=0;whiteSpace=wrap;html=1;shadow=1;fontColor=#E6E6E6;fillColor=#3333FF;strokeColor=none;" vertex="1" parent="ofSC6AayV_rCN6vgUUX2-70">
          <mxGeometry width="80" height="690" as="geometry" />
        </mxCell>
        <mxCell id="ofSC6AayV_rCN6vgUUX2-72" value="安&lt;br&gt;&lt;br&gt;全&lt;br&gt;&lt;br&gt;保&lt;br&gt;&lt;br&gt;障&lt;br&gt;&lt;br&gt;体&lt;br&gt;&lt;br&gt;系" style="text;html=1;strokeColor=none;fillColor=none;align=center;verticalAlign=middle;whiteSpace=wrap;rounded=0;shadow=1;fontColor=#E6E6E6;fontSize=22;spacingTop=0;spacing=2;spacingLeft=0;" vertex="1" parent="ofSC6AayV_rCN6vgUUX2-70">
          <mxGeometry x="20" y="302" width="40" height="20" as="geometry" />
        </mxCell>
      </root>
    </mxGraphModel>
  </diagram>
</mxfile>
